<?xml version="1.0" encoding="UTF-8" standalone="no"?>
<!-- Created with Inkscape (http://www.inkscape.org/) -->

<svg
   width="32"
   height="32"
   viewBox="0 0 8.4666665 8.4666666"
   version="1.1"
   id="svg1"
   inkscape:version="1.3 (0e150ed6c4, 2023-07-21)"
   sodipodi:docname="crosshairring.svg"
   inkscape:export-filename="crosshairring.png"
   inkscape:export-xdpi="96"
   inkscape:export-ydpi="96"
   xmlns:inkscape="http://www.inkscape.org/namespaces/inkscape"
   xmlns:sodipodi="http://sodipodi.sourceforge.net/DTD/sodipodi-0.dtd"
   xmlns="http://www.w3.org/2000/svg"
   xmlns:svg="http://www.w3.org/2000/svg">
  <sodipodi:namedview
     id="namedview1"
     pagecolor="#000000"
     bordercolor="#000000"
     borderopacity="0.25"
     inkscape:showpageshadow="2"
     inkscape:pageopacity="0.0"
     inkscape:pagecheckerboard="0"
     inkscape:deskcolor="#d1d1d1"
     inkscape:document-units="px"
     showgrid="true"
     inkscape:zoom="12.171875"
     inkscape:cx="25.016688"
     inkscape:cy="2.6700899"
     inkscape:window-width="1920"
     inkscape:window-height="1017"
     inkscape:window-x="2552"
     inkscape:window-y="352"
     inkscape:window-maximized="1"
     inkscape:current-layer="layer1">
    <inkscape:grid
       id="grid1"
       units="px"
       originx="0"
       originy="0"
       spacingx="0.26458333"
       spacingy="0.26458333"
       empcolor="#0099e5"
       empopacity="0.30196078"
       color="#0099e5"
       opacity="0.14901961"
       empspacing="4"
       dotted="false"
       gridanglex="30"
       gridanglez="30"
       visible="true" />
  </sodipodi:namedview>
  <defs
     id="defs1" />
  <g
     inkscape:label="Layer 1"
     inkscape:groupmode="layer"
     id="layer1">
    <path
       id="path2"
       style="fill:#ffffff;stroke-width:1.5748;stroke-linecap:round;stroke-linejoin:round;stroke-miterlimit:7.2"
       d="M 4.2333333 0.52916666 A 3.7041667 3.7041664 0 0 0 0.52916666 4.2333333 A 3.7041667 3.7041664 0 0 0 4.2333333 7.9374999 A 3.7041667 3.7041664 0 0 0 7.9374999 4.2333333 A 3.7041667 3.7041664 0 0 0 4.2333333 0.52916666 z M 4.2333333 1.5875 A 2.6458333 2.6458333 0 0 1 6.8791666 4.2333333 A 2.6458333 2.6458333 0 0 1 4.2333333 6.8791666 A 2.6458333 2.6458333 0 0 1 1.5875 4.2333333 A 2.6458333 2.6458333 0 0 1 4.2333333 1.5875 z " />
  </g>
</svg>
